<?xml version="1.0" encoding="utf-8"?>
<!-- Generator: Adobe Illustrator 23.0.3, SVG Export Plug-In . SVG Version: 6.00 Build 0)  -->
<svg version="1.1" id="Слой_1" xmlns="http://www.w3.org/2000/svg" xmlns:xlink="http://www.w3.org/1999/xlink" x="0px" y="0px"
	 viewBox="0 0 1080 315" style="enable-background:new 0 0 1080 315;" xml:space="preserve">
<style type="text/css">
	.st0{fill:#EC0107;}
	.st1{fill:#F89F01;}
	.st2{fill:#FE5E00;}
	.st3{fill:#332D5E;}
	.st4{fill:#323066;}
	.st5{fill:#322C5F;}
	.st6{fill:#0E0E0E;}
	.st7{fill:#131313;}
	.st8{fill:#101010;}
	.st9{fill:#10100F;}
	.st10{fill:#A7A6A3;}
	.st11{fill:#121211;}
	.st12{fill:#1D1C1C;}
</style>
<path class="st0" d="M756.1,206.8c-41.2,34.4-106.5,23-136.3-23.8c-24.2-38-17.9-88.3,14.9-119.2c32.9-30.9,83-34.1,119.3-7.6
	c0.7,0.5,1.3,1.1,2,1.7c-2.5,2.6-5.1,5.2-7.5,7.8c-14.6,15.8-24.2,33.9-26.6,55.7c-2.9,26.3,4.1,49.4,20.2,70
	C746.3,196.9,751.3,201.7,756.1,206.8z"/>
<path class="st1" d="M757.6,58.1c29.6-22.4,61.9-26.2,95.5-11.5c38.3,16.7,60,56.5,54.8,97.4c-5.2,41.4-36.4,74.3-78.1,81.1
	c-26.5,4.4-50.8-1.6-72-18.5c4.7-5.1,9.6-10,14-15.3c29-35.5,27.6-88-3.2-121.5C765,65.9,761.3,62.1,757.6,58.1z"/>
<path class="st2" d="M757.6,58.1c3.7,3.9,7.4,7.8,11,11.7c30.8,33.5,32.2,86,3.2,121.5c-4.4,5.3-9.3,10.2-14,15.3
	c-0.6,0-1.2,0.1-1.8,0.1c-4.7-5.1-9.8-9.9-14.1-15.3c-16.1-20.6-23.1-43.8-20.2-70c2.4-21.8,12-39.9,26.6-55.7
	c2.5-2.7,5-5.2,7.5-7.8C756.5,58,757,58.1,757.6,58.1z"/>
<path class="st3" d="M207,172.1c9.1-23.2,18-45,26.2-67c2.1-5.6,4.8-7.8,10.9-7.3c6.8,0.6,13.6,0.1,21.2,0.1
	c-1.6,3.8-3,7.1-4.4,10.4c-13,31.2-26.1,62.5-39.1,93.7c-1.3,3.2-2.9,4.5-6.5,4.3c-8.2-0.3-16.4-0.1-24.9-0.1c-5-19.5-10-38.7-15-58
	c-2.5-9.6-5-19.3-7.4-28.9c-1.2-4.7-3.6-8.3-8.3-10c-8.5-3.1-17-6.1-26.4-9.5c1.4-0.8,2.4-1.9,3.5-1.9c15.2-0.1,30.5-0.2,45.7,0
	c6.4,0.1,10.7,4.1,12.1,11c3.9,20.1,7.7,40.2,11.5,60.2C206.2,169.8,206.4,170.2,207,172.1z"/>
<path class="st3" d="M302.1,202.5c1.7-8,3.3-15.6,5-23.5c10.8,5,21.5,7.8,33,6.2c2.1-0.3,4.1-0.8,6-1.6c8.1-3.6,9.1-11,2.1-16.4
	c-2.9-2.2-6.3-3.8-9.4-5.6c-4.1-2.4-8.4-4.4-12.2-7.2c-16.5-11.9-17.6-32.1-2.6-45.9c9.8-9,21.9-12.5,34.8-12.4
	c9.3,0.1,18.6,2.1,28.4,3.3c-1.8,8.8-3.4,16.1-4.8,23.1c-7-1.4-13.7-3.3-20.5-3.8c-4.7-0.3-9.9,0.6-14.2,2.4
	c-6.5,2.7-6.9,8.8-1.5,13.3c2.3,1.9,5,3.3,7.5,4.8c4.8,2.8,9.8,5.4,14.5,8.4c21,13.4,14.8,38.9,1.9,49.3c-8.3,6.8-18,9.8-28.5,10.9
	C328.2,209.1,315.2,207.2,302.1,202.5z"/>
<path class="st4" d="M437.2,98c6.1-0.1,12.3-0.3,18.4-0.1c1.2,0,3.2,1.6,3.5,2.7c7.4,35,14.7,70,22,105.3c-8.7,0-17,0-25.5,0
	c-0.9-4.3-1.5-8.4-2.7-12.4c-0.5-1.4-2.5-3.1-4-3.3c-3.8-0.5-7.7-0.3-11.5-0.4c-5.7-6.3-4.1-14.1-4.2-21.5c4.7,0,9.4,0,14.6,0
	c-2.9-13.9-5.7-27-8.7-41.5c-1.1,2.6-1.6,3.7-2.1,4.8c-1.3-2-3.3-3.9-3.6-6.1c-0.4-3,0.9-6.2,0.7-9.2
	C433.5,109.9,431.3,103.3,437.2,98z"/>
<path class="st3" d="M282.5,206.1c-9.4,0-18.3,0-27.7,0c7.7-36.1,15.3-71.9,23-107.9c9.1,0,18.1,0,27.7,0
	C297.8,134.2,290.1,170,282.5,206.1z"/>
<path class="st5" d="M433.1,168.4c0.1,7.4-1.4,15.2,4.2,21.5c-5.8,0.1-11.5,0.4-17.3,0.2c-3.1-0.1-4.6,0.9-5.7,3.9
	c-4.4,12.3-4.5,12.3-17.3,12.3c-5.1,0-10.1,0-15.9,0c2.2-5.3,4.1-10.1,6.1-14.9c11.8-28.4,23.6-56.8,35.4-85.1
	c2.5-6,6.9-8.5,14.7-8.2c-5.9,5.3-3.8,11.9-3.3,18.4c0.2,3-1.1,6.2-0.7,9.2c0.3,2.1,2.3,4,3.6,6.1c-4.3,12-8.6,24-13.1,36.7
	C427.5,168.4,430.3,168.4,433.1,168.4z"/>
<path class="st6" d="M626.5,273.8c-1.9,0-3.4,0-5.2,0c0-8,0-16,0-24.9c6.6,3.6,14.5-5,19.6,2.4c4.3-1,7.9-2.6,11.4-2.6
	c4.7,0.1,7.7,3.4,8,8.2c0.3,5.6,0.1,11.2,0.1,17c-1.8,0-3.3,0-5.4,0c0-4.6,0-9.1,0-13.6c0-3.7-1.3-6.8-5.6-6.6
	c-4.1,0.1-5.8,2.8-5.8,6.7c0,4.4,0,8.7,0,13.5c-1.8,0-3.5,0-5.5,0c0-4.5,0.1-8.8,0-13.2c-0.1-3.6-0.9-6.9-5.4-7
	c-4.4,0-6.1,2.8-6.1,6.9C626.5,264.8,626.5,269.1,626.5,273.8z"/>
<path class="st6" d="M888.6,251c0-4.6,0-8.2,0-12.1c1.8,0,3.3,0,5.1,0c0,11.5,0,23,0,34.2c-4.7,0.4-9.3,1.2-13.9,1.2
	c-5.2,0-8.8-3-10.7-7.8c-2.1-5.2-0.8-11.4,3.1-15c3.9-3.5,8.3-4.3,13.1-2.3C886.2,249.5,886.9,250,888.6,251z M881.3,269.2
	c4.3,0.1,7.5-3.1,7.7-7.5c0.2-4.5-3.1-8.3-7.4-8.4c-4.3-0.1-7.7,3.6-7.7,8.1C873.9,265.9,877.1,269.2,881.3,269.2z"/>
<path class="st6" d="M690.6,273.2c-4.7,0.5-9.3,1.2-13.8,1.2c-5.3,0-8.8-3.1-10.7-7.9c-2-5.3-0.7-11.5,3.3-15
	c3.9-3.4,8.2-3.9,13.2-2.2c2.3,0.8,5.1,0.1,8,0.1C690.6,257.3,690.6,265.4,690.6,273.2z M685.7,261.7c0.1-4.7-3.1-8.2-7.5-8.2
	c-4.2,0-7.4,3.3-7.5,7.7c-0.1,4.7,3,8.2,7.5,8.2C682.6,269.3,685.6,266.2,685.7,261.7z"/>
<path class="st7" d="M843.9,249.2c0,7.8,0,15.2,0,22.5c0,0.5-0.2,1-0.2,1.5c-5,0.4-10,1.2-14.9,1c-5.2-0.2-8.6-3.6-10.1-8.6
	c-1.7-5.3-0.7-10.1,3.3-14c3.7-3.6,8.1-4.1,13.2-2.6C837.7,249.8,840.6,249.2,843.9,249.2z M838.7,261.5c0.1-4.4-3.1-8-7.2-8.1
	c-4.4-0.2-7.8,3.3-7.7,8.1c0,4.6,3.1,7.8,7.4,7.8C835.4,269.2,838.6,265.9,838.7,261.5z"/>
<path class="st8" d="M768.8,271.1c-7.6,4.5-14.7,4.4-19.1,0.1c-4.2-4.1-5.1-11.6-2.1-17c2.8-4.8,8.6-7.1,14-5.5
	c5.7,1.7,8.5,6.5,8.2,14.6c-5.9,0-11.9,0-18,0c2.4,6.8,5.7,7.6,14.5,4.1C767,268.5,767.8,269.7,768.8,271.1z M764.4,259
	c-0.9-3.8-2.7-5.9-6.4-5.9c-3.6,0.1-5.6,2.1-6.3,5.9C755.9,259,759.8,259,764.4,259z"/>
<path class="st9" d="M718,250.1c-1.1,2.2-1.7,3.4-2.3,4.7c-0.6,0-1.1,0-1.6-0.1c-2.6-0.4-5.1-1.2-7.7-1.2c-1.1,0-2.3,1.6-3.4,2.5
	c1,0.8,1.9,1.9,3.1,2.3c2.3,0.7,5.1,0.4,7.1,1.6c2.1,1.3,4.7,3.9,4.8,5.9c0,2.4-1.9,5.9-4,7c-5.8,3-11.8,2.2-17.6-1.4
	c0.7-1.4,1.4-2.6,2.1-4c4.9,1.6,9.8,4,14.5-1.8c-2.3-0.7-4.6-1.5-6.9-1.9c-6-1.1-9-3.7-8.8-7.8c0.2-4.4,3.9-7.6,9.7-7.6
	C710.3,248.4,713.8,249.4,718,250.1z"/>
<path class="st8" d="M732.4,249c3.3,0,5.9,0,8.7,0c0,1.7,0,3,0,4.7c-2.8,0.1-5.5,0.3-8.6,0.4c0,2.8,0,5.4,0,8c0,7.4,0.7,7.9,8.2,6.2
	c0.5,1.3,1,2.7,1.6,4c-9.5,4.9-15.3,1.5-15.4-8.7c0-3,0-5.9,0-9.2c-2.6-0.7-6.7-0.3-4.6-5.3c1.2-0.2,2.7-0.4,4.4-0.7
	c0.1-2.2,0.2-4.3,0.3-6.9c1.6-0.1,3.2-0.2,5.3-0.3C732.4,243.9,732.4,246.1,732.4,249z"/>
<path class="st10" d="M545.3,10.6c0.1,99.7,0.1,199.5,0.2,299.2c-0.2,0-0.3,0-0.5,0c-0.1-99.7-0.1-199.4-0.2-299.1
	C544.9,10.7,545.1,10.7,545.3,10.6z"/>
<path class="st11" d="M812.8,267.3c0.9,1.6,1.5,2.8,2.1,3.8c-1.7,3.6-10.8,4.4-15.7,1.7c-6.3-3.6-8.4-12.5-4.3-18.8
	c4.1-6.4,13-7.7,20-2.7c-0.7,1.3-1.4,2.6-2.2,4c-4.5-2-9-3.6-12.5,1c-2.5,3.2-2.4,7.1,0.2,10.2C803.9,270.8,808.3,269.4,812.8,267.3
	z"/>
<path class="st8" d="M775.9,249.5c5.1-0.4,10-0.7,15.3-1.1c-0.5,3.1-0.2,5.6-4.4,5.1c-3.9-0.5-5.6,2.2-5.7,5.9
	c-0.1,4.7,0,9.4,0,14.3c-2,0-3.5,0-5.2,0C775.9,265.6,775.9,257.6,775.9,249.5z"/>
<path class="st12" d="M851,249.3c5.3-0.3,10.2-0.6,15.6-0.9c-0.7,3.3-0.6,5.7-4.7,5.2c-3.6-0.5-5.3,2.1-5.4,5.6
	c-0.1,4.7,0,9.4,0,14.4c-2,0-3.6,0-5.5,0C851,265.5,851,257.5,851,249.3z"/>
</svg>
