<svg width="152" height="50" viewBox="0 0 36 12" fill="none" xmlns="http://www.w3.org/2000/svg">
<path fill-rule="evenodd" clip-rule="evenodd" d="M12.2417 2.12598C12.552 2.12598 12.8624 2.12598 13.1727 2.12598C13.2502 2.12598 13.3136 2.18943 13.3136 2.2669C13.3136 2.57756 13.3136 2.88842 13.3136 3.19907C12.7217 3.19907 12.2417 2.71907 12.2417 2.12714V2.12598Z" fill="#F48120"/>
<path d="M11.4906 5.49651C11.4906 5.80231 11.4468 6.15306 11.2609 6.4065C10.9719 6.80046 10.3414 6.80046 10.0524 6.4065C9.8663 6.15306 9.8227 5.80231 9.8227 5.49651C9.8227 4.41777 9.8227 3.33922 9.8227 2.26048C9.8227 2.18651 9.7621 2.12598 9.6882 2.12598H8.1345C8.0605 2.12598 8 2.18651 8 2.26048C8 3.31625 8 4.34361 8 5.39938C8 6.34226 8.2217 7.07764 8.6649 7.54577C9.5545 8.48573 11.7592 8.48573 12.6486 7.54577C13.0918 7.07764 13.3135 6.34226 13.3135 5.39938V4.93339H11.4906V5.49651Z" fill="#003C7F"/>
<path d="M13.3132 3.55489C12.5239 3.55489 11.8866 2.91528 11.886 2.12598H11.6316C11.5542 2.12598 11.4907 2.18943 11.4907 2.2669C11.4907 3.03752 11.4907 3.80794 11.4907 4.57855C12.0984 4.57855 12.7059 4.57855 13.3136 4.57855C13.3136 4.23733 13.3132 3.89611 13.3132 3.55489Z" fill="#003C7F"/>
<path d="M10.2049 9.07691C10.2748 9.07691 10.3357 9.12051 10.3641 9.17521L10.4877 9.11428C10.4402 9.03019 10.354 8.94922 10.2049 8.94922C10.0023 8.94922 9.84521 9.09112 9.84521 9.29881C9.84521 9.5065 10.0023 9.6484 10.2049 9.6484C10.3538 9.6484 10.4391 9.56626 10.4877 9.48217L10.3641 9.42241C10.3357 9.47808 10.275 9.52071 10.2049 9.52071C10.0823 9.52071 9.99311 9.4265 9.99311 9.29881C9.99311 9.17112 10.0823 9.07691 10.2049 9.07691Z" fill="#003C7F"/>
<path d="M9.49266 9.07754V8.96191H8.98486V9.08863H9.30426L8.98486 9.52133V9.63793H9.49966V9.51121H9.17346L9.49266 9.07754Z" fill="#003C7F"/>
<path d="M8.46398 9.36328C8.46398 9.45749 8.41028 9.5225 8.30598 9.5225C8.20168 9.5225 8.14698 9.45768 8.14698 9.36328V8.96191H8.00098V9.36834C8.00098 9.53457 8.10018 9.65 8.30598 9.65C8.51168 9.65 8.61098 9.53554 8.61098 9.36717V8.96191H8.46398V9.36328Z" fill="#003C7F"/>
<path d="M13.6648 8.90153V8.77734H13.539C13.4695 8.77734 13.4131 8.8336 13.4131 8.90309C13.4131 8.97258 13.4693 9.02883 13.539 9.02883C13.6085 9.02883 13.6648 8.97258 13.6648 8.90309V8.90153Z" fill="#003C7F"/>
<path d="M12.9554 8.96191H12.689V9.63793H12.9554C13.1672 9.63793 13.3142 9.50421 13.3142 9.30041C13.3142 9.09681 13.1672 8.96191 12.9554 8.96191ZM12.9554 9.51121H12.8328V9.08863H12.9554C13.0944 9.08863 13.1672 9.1807 13.1672 9.30041C13.1672 9.41506 13.0893 9.51121 12.9554 9.51121Z" fill="#003C7F"/>
<path d="M12.3152 9.17992C12.3152 9.05418 12.2292 8.96191 12.0883 8.96191H11.772V9.63793H11.9158V9.39773H12.0211L12.2498 9.80727H12.4151L12.1671 9.38041C12.2401 9.36328 12.3152 9.29944 12.3152 9.17992ZM12.0669 9.27102H11.9158V9.08863H12.0669C12.1247 9.08863 12.1683 9.12308 12.1683 9.17992C12.1683 9.23656 12.1247 9.27102 12.0669 9.27102Z" fill="#003C7F"/>
<path d="M11.0407 8.96191L10.7793 9.63793H10.9436L10.986 9.52347H11.2758L11.3173 9.63793H11.4816L11.2211 8.96191H11.0407ZM11.0255 9.39676L11.131 9.10595L11.2363 9.39676H11.0255Z" fill="#003C7F"/>
<path d="M22.8585 2.00474C24.0334 2.00474 25.2084 2.00732 26.3834 2.00098C26.5128 2.00027 26.5639 2.04539 26.5924 2.17488C26.9 3.57375 26.7465 4.8972 26.0371 6.12596C25.6834 6.73857 25.2483 7.27293 24.6848 7.67335C24.3811 7.8893 24.0558 8.00234 23.6838 7.99975C22.2326 7.98918 20.7812 7.99552 19.3296 7.99529C19.0833 7.99529 19 7.90599 19 7.64257C19 5.87922 19 4.11587 19 2.35252C19 2.09333 19.0805 2.00497 19.3186 2.00497C20.4987 2.00451 21.6787 2.00474 22.8585 2.00474Z" fill="#234B5A"/>
<mask id="mask0_283_869" style="mask-type:luminance" maskUnits="userSpaceOnUse" x="24" y="2" width="5" height="6">
<path d="M26.8295 2.13841C26.9423 2.50617 26.9901 2.88567 26.9976 3.27082C27.0155 4.18116 26.8105 5.03604 26.4183 5.83642C25.9574 6.77684 25.3207 7.52669 24.3974 7.95318C24.3841 7.95929 24.3563 7.95765 24.3719 7.99266C24.9139 7.99266 25.4568 7.98914 25.9995 7.99407C26.3027 7.9969 26.6002 7.95812 26.8885 7.86107C27.3691 7.69893 27.8031 7.45455 28.0784 6.97188C28.247 6.67603 28.2685 6.36561 28.1155 6.02934C27.7221 6.88493 27.1485 7.44797 26.2584 7.54407C26.2941 7.51235 26.3391 7.49638 26.3844 7.4818C26.8279 7.33963 27.1887 7.06258 27.49 6.68801C27.9713 6.08974 28.246 5.39253 28.3213 4.60742C28.3614 4.18727 28.3234 3.77393 28.0958 3.409C28.0433 3.32511 27.9898 3.23675 27.888 3.19868C27.8983 4.21571 27.6572 5.15072 27.2048 6.02276C27.0378 6.34446 26.8435 6.64712 26.5224 6.82242C26.6681 6.64101 26.796 6.44551 26.908 6.23825C27.2967 5.51871 27.5189 4.73808 27.6162 3.91563C27.6683 3.47455 27.68 3.03113 27.5274 2.60462C27.4201 2.30478 27.2445 2.08131 26.9362 2.01457C26.895 2.00564 26.865 2 26.8442 2C26.793 1.99977 26.7976 2.03408 26.8295 2.13841Z" fill="white"/>
</mask>
<g mask="url(#mask0_283_869)">
<path d="M22.6094 2.67282L27.9131 0.634766L30.1083 7.32723L24.8046 9.36527L22.6094 2.67282Z" fill="url(#paint0_linear_283_869)"/>
</g>
<path d="M23.9626 4.19043H23.8434C23.8039 4.19043 23.7677 4.21463 23.7498 4.25294L23.4805 4.8437L23.2032 4.2506C23.1849 4.21371 23.1496 4.19043 23.1108 4.19043H22.9904C22.9338 4.19043 22.8876 4.23931 22.8858 4.30041L22.8578 5.36937C22.8562 5.43305 22.9034 5.48592 22.9624 5.48592H22.9661C23.023 5.48592 23.0695 5.43681 23.0708 5.37524L23.0836 4.77955C23.0853 4.71517 23.0869 4.59978 23.0853 4.56665H23.0888C23.1092 4.6254 23.1551 4.72081 23.1837 4.78308L23.3539 5.11934C23.3954 5.20135 23.5041 5.20206 23.5464 5.12075L23.7227 4.75182C23.7516 4.69119 23.7972 4.58662 23.8176 4.5354H23.8211C23.8211 4.59603 23.8243 4.70412 23.826 4.78119L23.8417 5.37571C23.8434 5.43705 23.8897 5.48569 23.9463 5.48569H23.9973C24.0566 5.48569 24.1039 5.43258 24.1019 5.36843L24.067 4.29947C24.0652 4.23884 24.0191 4.19043 23.9626 4.19043Z" fill="url(#paint1_linear_283_869)"/>
<path d="M24.858 4.15625C24.5054 4.15625 24.2426 4.40769 24.2426 4.80036C24.2426 5.20031 24.4527 5.5213 24.841 5.5213C25.2291 5.5213 25.4667 5.1909 25.4667 4.78179C25.4667 4.37832 25.2174 4.15625 24.858 4.15625ZM24.858 5.33966C24.6002 5.33966 24.5241 5.03699 24.5241 4.81117C24.5241 4.5837 24.6055 4.3379 24.8547 4.3379C25.0972 4.3379 25.1853 4.58934 25.1853 4.80952C25.1851 5.02406 25.1072 5.33966 24.858 5.33966Z" fill="url(#paint2_linear_283_869)"/>
<path d="M22.5396 4.18945H22.4749C22.4176 4.18945 22.3713 4.23973 22.3713 4.30177V4.96985C22.3713 5.16465 22.2867 5.27086 22.1252 5.28003C21.9637 5.27086 21.8791 5.16465 21.8791 4.96985V4.30177C21.8791 4.23973 21.8325 4.18945 21.7752 4.18945H21.7105C21.6532 4.18945 21.6068 4.23973 21.6068 4.30177V4.96985C21.6068 5.03987 21.6139 5.1106 21.6325 5.17781C21.6483 5.23538 21.6726 5.29037 21.7066 5.33784C21.7385 5.38249 21.7786 5.41961 21.8238 5.44711C21.8719 5.47624 21.9244 5.49857 21.9786 5.50702C22.0584 5.51948 22.1011 5.5176 22.1469 5.51737C22.235 5.5169 22.2943 5.50985 22.3779 5.4746C22.3829 5.47248 22.3878 5.47037 22.3929 5.46802C22.4408 5.44547 22.4846 5.4128 22.5206 5.37144C22.5578 5.32844 22.5859 5.27697 22.6052 5.22198C22.6277 5.15807 22.6388 5.08969 22.6423 5.02154C22.6431 5.00439 22.6436 4.98701 22.6436 4.96961V4.30155C22.6434 4.23973 22.597 4.18945 22.5396 4.18945Z" fill="url(#paint3_linear_283_869)"/>
<path d="M20.6396 5.55802C20.5309 5.51596 20.4523 5.4316 20.3978 5.31247C20.3293 5.16324 20.2786 4.95411 20.2797 4.78562C20.2807 4.62654 20.2899 4.54076 20.3346 4.45898C20.2639 4.51186 20.2085 4.59317 20.1889 4.68857C20.1355 4.94846 20.2513 5.38954 20.4775 5.54039C20.4816 5.54322 20.4892 5.54745 20.4837 5.55708C20.3405 5.52654 20.2024 5.32092 20.1351 5.03495C20.1212 5.03823 20.1158 5.04811 20.1105 5.05774C20.0607 5.14609 20.0683 5.23797 20.1073 5.32421C20.1922 5.51102 20.327 5.60926 20.5011 5.62969C20.5476 5.63533 20.5949 5.63604 20.6401 5.61418C20.6538 5.6076 20.6706 5.59985 20.6722 5.58176C20.6743 5.55615 20.6511 5.56273 20.6396 5.55802Z" fill="url(#paint4_linear_283_869)"/>
<path d="M21.1926 4.18652C21.1405 4.18652 21.0899 4.21377 21.0603 4.26923C21.116 4.26688 21.1153 4.32398 21.1046 4.64451V4.68869C20.963 4.68869 20.7192 4.68775 20.5869 4.68728C20.5869 4.41515 20.6292 4.29321 20.649 4.21824C20.5839 4.22881 20.4857 4.26148 20.4316 4.38391C20.3644 4.53665 20.3499 4.76717 20.3756 4.95164C20.3997 5.12459 20.4836 5.4343 20.6811 5.50527C20.6946 5.5102 20.7065 5.49469 20.6993 5.4813C20.6628 5.41456 20.5938 5.24185 20.5853 4.88537C20.6974 4.88748 20.9991 4.89265 21.1045 4.89195V4.92204V5.38167C21.1045 5.43336 21.1433 5.47542 21.191 5.47542H21.2915C21.3393 5.47542 21.3782 5.43336 21.3782 5.38167V4.44242C21.3848 4.27417 21.2861 4.18652 21.1926 4.18652Z" fill="url(#paint5_linear_283_869)"/>
<defs>
<linearGradient id="paint0_linear_283_869" x1="24.0935" y1="5.86828" x2="28.49" y2="4.42632" gradientUnits="userSpaceOnUse">
<stop stop-color="#A48830"/>
<stop offset="0.275" stop-color="#9E8731"/>
<stop offset="0.6" stop-color="#FFE99E"/>
<stop offset="0.825" stop-color="#C1A84C"/>
<stop offset="1" stop-color="#C1A84C"/>
</linearGradient>
<linearGradient id="paint1_linear_283_869" x1="19.6598" y1="3.65928" x2="25.5589" y2="5.2201" gradientUnits="userSpaceOnUse">
<stop stop-color="#A48830"/>
<stop offset="0.275" stop-color="#9E8731"/>
<stop offset="0.6" stop-color="#FFE99E"/>
<stop offset="0.825" stop-color="#C1A84C"/>
<stop offset="1" stop-color="#C1A84C"/>
</linearGradient>
<linearGradient id="paint2_linear_283_869" x1="19.766" y1="3.25961" x2="25.6652" y2="4.82041" gradientUnits="userSpaceOnUse">
<stop stop-color="#A48830"/>
<stop offset="0.275" stop-color="#9E8731"/>
<stop offset="0.6" stop-color="#FFE99E"/>
<stop offset="0.825" stop-color="#C1A84C"/>
<stop offset="1" stop-color="#C1A84C"/>
</linearGradient>
<linearGradient id="paint3_linear_283_869" x1="19.566" y1="4.01298" x2="25.4651" y2="5.57379" gradientUnits="userSpaceOnUse">
<stop stop-color="#A48830"/>
<stop offset="0.275" stop-color="#9E8731"/>
<stop offset="0.6" stop-color="#FFE99E"/>
<stop offset="0.825" stop-color="#C1A84C"/>
<stop offset="1" stop-color="#C1A84C"/>
</linearGradient>
<linearGradient id="paint4_linear_283_869" x1="19.3778" y1="4.72656" x2="25.2769" y2="6.28736" gradientUnits="userSpaceOnUse">
<stop stop-color="#A48830"/>
<stop offset="0.275" stop-color="#9E8731"/>
<stop offset="0.6" stop-color="#FFE99E"/>
<stop offset="0.825" stop-color="#C1A84C"/>
<stop offset="1" stop-color="#C1A84C"/>
</linearGradient>
<linearGradient id="paint5_linear_283_869" x1="19.4679" y1="4.38688" x2="25.367" y2="5.94768" gradientUnits="userSpaceOnUse">
<stop stop-color="#A48830"/>
<stop offset="0.275" stop-color="#9E8731"/>
<stop offset="0.6" stop-color="#FFE99E"/>
<stop offset="0.825" stop-color="#C1A84C"/>
<stop offset="1" stop-color="#C1A84C"/>
</linearGradient>
</defs>
</svg>
