<?xml version="1.0" encoding="UTF-8"?>
<svg id="Layer_1" data-name="Layer 1" xmlns="http://www.w3.org/2000/svg" viewBox="0 0 36 10">
  <defs>
    <style>
      .cls-1 {
        fill: #00c0c9;
        fill-rule: evenodd;
      }
    </style>
  </defs>
  <path class="cls-1" d="m29.87,0H4.72s0,0,0,0C4.22,0,3.78.38,3.72.89l-.95,8.23c-.06.49.31.89.81.89h25.07c.29,0,.55-.14.74-.36l3.59-4.13c.28-.32.32-.71.12-1.04L30.56.35c-.14-.23-.4-.35-.69-.35Zm-13.5,5.75l1.31-2.97h1.31l-2.81,5.7h-1.32l.7-1.41-1.19-4.29h1.34l.68,2.97Zm-11.33,2.73h0s0,0,0,0Zm1.2,0h-1.2l.7-5.7h1.17l-.04.32c.33-.27.77-.43,1.25-.43,1.01,0,1.55.8,1.55,1.94,0,1.34-.85,2.56-2.24,2.56-.45,0-.8-.16-.99-.31l-.2,1.62Zm.57-4.57l-.27,2.11c.2.14.46.21.7.21.74,0,1.18-.71,1.18-1.54,0-.64-.28-1.05-.8-1.06-.26,0-.55.08-.81.28Zm4.52,3.26c-.87,0-1.43-.57-1.43-1.26h0s0,0,0,0c0-1.17,1.2-1.58,2.25-1.58h.72c.03-.36-.21-.7-.89-.7-.57,0-1.18.21-1.5.38l.12-.96c.4-.26,1.12-.39,1.73-.39,1.48,0,1.86.93,1.72,2.08l-.28,2.32h-1.17l.05-.44c-.26.28-.7.54-1.31.54Zm.88-1.99c-.56,0-1.1.17-1.1.63h0s0,0,0,0c0,.27.22.45.55.45.36,0,.79-.2,1.03-.39l.09-.69h-.57Zm16,1.99c-1.6,0-2.38-.99-2.36-2.07h0c.02-1.67,1.11-2.44,2.4-2.44s1.92.82,1.92,1.95c0,.26-.03.52-.08.63h-2.97c.15.62.7.88,1.31.88.46,0,1-.15,1.35-.36l-.09,1.01c-.43.27-.91.38-1.48.38Zm-.05-3.54c-.51,0-.92.33-1.04.9h1.81c0-.05,0-.11,0-.16h0c0-.45-.28-.74-.78-.74Zm-7.8.3l-.4,3.14h0s-1.21,0-1.21,0l.54-4.29h1.13l-.05.39c.39-.26.88-.51,1.38-.51s.87.21,1.03.59c.39-.28.96-.59,1.5-.59.78,0,1.22.51,1.12,1.36l-.38,3.04h-1.21l.34-2.79c.05-.43-.11-.68-.45-.68-.26,0-.57.15-.83.33v.09s-.39,3.04-.39,3.04h-1.21l.34-2.79c.05-.43-.11-.68-.45-.68-.26,0-.56.15-.82.33Z"/>
</svg>