<?xml version="1.0" encoding="utf-8"?>
<!-- Generator: Adobe Illustrator 27.6.1, SVG Export Plug-In . SVG Version: 6.00 Build 0)  -->
<svg version="1.1" id="Layer_1" xmlns="http://www.w3.org/2000/svg" xmlns:xlink="http://www.w3.org/1999/xlink" x="0px" y="0px"
	 viewBox="0 0 36 10" style="enable-background:new 0 0 36 10;" xml:space="preserve">
<style type="text/css">
	.st0{clip-path:url(#SVGID_00000158717608039911236680000003491858841981080709_);}
	.st1{fill-rule:evenodd;clip-rule:evenodd;fill:#0065FF;}
</style>
<g>
	<defs>
		<rect id="SVGID_1_" y="0.6" width="36" height="8.6"/>
	</defs>
	<clipPath id="SVGID_00000103976874474274383140000010443519922713927604_">
		<use xlink:href="#SVGID_1_"  style="overflow:visible;"/>
	</clipPath>
	<g style="clip-path:url(#SVGID_00000103976874474274383140000010443519922713927604_);">
		<path class="st1" d="M9,4.9c0,1.6-2.8,4.3-4.5,4.3C2.8,9.2,0,6.6,0,4.9c0-1.6,2.8-4.3,4.5-4.3C6.3,0.6,9,3.3,9,4.9z M6.3,4.9
			c0,0.7-1.1,1.7-1.8,1.7c-0.7,0-1.8-1-1.8-1.7s1.1-1.7,1.8-1.7C5.2,3.2,6.3,4.3,6.3,4.9z"/>
		<path d="M13.9,9.2c1.7,0,2.7-1,3.1-2.3h-1.9c-0.2,0.4-0.6,0.8-1.2,0.8c-0.8,0-1.3-0.5-1.3-1.4c0-0.9,0.6-1.4,1.3-1.4
			c0.6,0,1,0.3,1.2,0.8H17c-0.3-1.3-1.4-2.3-3.1-2.3c-1.8,0-3.1,1.3-3.1,2.9C10.8,7.9,12.1,9.2,13.9,9.2z M17.6,9.1h1.8V0.6h-1.8
			V9.1z M21.4,2.7c0.6,0,1.1-0.5,1.1-1.1c0-0.6-0.5-1.1-1.1-1.1c-0.6,0-1.1,0.5-1.1,1.1C20.3,2.2,20.8,2.7,21.4,2.7z M20.5,9.1h1.8
			V3.4h-1.8V9.1z M26.1,9.2c1.7,0,2.7-1,3.1-2.3h-1.9c-0.2,0.4-0.6,0.8-1.2,0.8c-0.8,0-1.3-0.5-1.3-1.4c0-0.9,0.6-1.4,1.3-1.4
			c0.6,0,1,0.3,1.2,0.8h1.9c-0.3-1.3-1.4-2.3-3.1-2.3c-1.8,0-3.1,1.3-3.1,2.9C23,7.9,24.3,9.2,26.1,9.2z M33.8,9.1H36L33.3,6
			l2.2-2.5h-2.1l-1.7,2V0.6h-1.8v8.4h1.8V6.6L33.8,9.1z"/>
	</g>
</g>
</svg>
