<?xml version="1.0" encoding="utf-8"?>
<!-- Generator: Adobe Illustrator 23.0.3, SVG Export Plug-In . SVG Version: 6.00 Build 0)  -->
<svg version="1.1" id="Слой_1" xmlns="http://www.w3.org/2000/svg" xmlns:xlink="http://www.w3.org/1999/xlink" x="0px" y="0px"
	 viewBox="0 0 1080 315" style="enable-background:new 0 0 1080 315;" xml:space="preserve">
<style type="text/css">
	.st0{fill:#7102FF;}
	.st1{fill:#7203FF;}
	.st2{fill:#7304FF;}
	.st3{fill:#7101FF;}
</style>
<path class="st0" d="M225.6,277.6c-68.4,0-125.4-55.4-125.4-125.4c0-68.4,55.4-125.4,125.4-125.4s125.4,55.4,125.4,125.4
	C351.1,220.5,294.1,277.6,225.6,277.6z M176.8,101.6c-11.4,1.6-21.2,4.9-31,8.1v57v1.6c6.5,45.6,47.2,73.3,88,70.1
	c42.4-3.3,73.3-39.1,73.3-79.8v-42.4v-6.5c-9.8-3.3-21.2-4.9-31-8.1v6.5v52.1c0,11.4-1.6,24.4-6.5,34.2c-6.5,13-16.3,21.2-29.3,22.8
	c-4.9,0-9.8,1.6-14.7,1.6c-21.2,0-35.8-11.4-42.4-31c-3.3-8.1-3.3-16.3-4.9-26.1v-53.8C176.8,104.9,176.8,103.2,176.8,101.6z
	 M240.3,70.7c-9.8,0-19.5-1.6-27.7,0v65.2h27.7V70.7z"/>
<path class="st1" d="M971.8,202.6h-29.3v-6.5v-47.2c0-3.3,0-8.1-1.6-11.4c-3.3-9.8-13-14.7-22.8-13c-9.8,1.6-16.3,8.1-16.3,17.9
	v52.1v6.5h-29.3v-4.9V144c0-11.4-6.5-17.9-17.9-19.5c-11.4-1.6-19.5,4.9-22.8,16.3v8.1v47.2v6.5H817h-14.7v-3.3v-58.6
	c0-13,4.9-24.4,14.7-32.6c8.1-6.5,19.5-9.8,29.3-9.8c14.7-1.6,27.7,3.3,39.1,11.4c6.5-3.3,13-8.1,21.2-9.8c13-3.3,24.4-1.6,37.5,1.6
	c17.9,6.5,27.7,21.2,27.7,39.1C973.4,161.9,973.4,181.4,971.8,202.6C973.4,201,973.4,201,971.8,202.6z"/>
<path class="st2" d="M748.6,101.6h29.3v4.9v57c0,3.3,0,8.1-1.6,11.4c-3.3,16.3-14.7,24.4-31,29.3c-16.3,3.3-32.6,3.3-47.2,0
	c-17.9-3.3-29.3-14.7-31-34.2v-8.1v-52.1v-6.5h29.3v4.9V157c0,3.3,0,6.5,1.6,11.4c1.6,4.9,4.9,8.1,9.8,11.4c9.8,3.3,19.5,3.3,27.7,0
	c6.5-1.6,9.8-6.5,11.4-13V157v-47.2C748.6,104.9,748.6,103.2,748.6,101.6L748.6,101.6z"/>
<path class="st3" d="M646,178.2v24.4h-101v-3.3v-16.3c0-3.3,1.6-4.9,3.3-6.5l50.5-44c1.6-1.6,3.3-1.6,3.3-3.3h-1.6h-50.5v-24.4H646
	v22.8c0,1.6-1.6,3.3-3.3,4.9L600.3,170c-4.9,3.3-8.1,8.1-13,11.4v1.6C605.2,178.2,624.8,178.2,646,178.2L646,178.2z"/>
<path class="st1" d="M413,101.6h29.3v6.5v47.2v6.5c1.6,8.1,6.5,14.7,14.7,16.3c8.1,1.6,14.7,1.6,22.8,0s13-6.5,13-14.7v-9.8v-45.6
	v-4.9h29.3v3.3v57c0,3.3,0,8.1-1.6,11.4c-3.3,14.7-13,22.8-26.1,27.7c-4.9,1.6-9.8,1.6-14.7,3.3c-13,1.6-27.7,1.6-40.7-1.6
	c-16.3-4.9-26.1-14.7-27.7-32.6v-13v-50.5C413,104.9,413,103.2,413,101.6z"/>
</svg>
