<?xml version="1.0" standalone="no"?>
<!DOCTYPE svg PUBLIC "-//W3C//DTD SVG 20010904//EN"
 "http://www.w3.org/TR/2001/REC-SVG-20010904/DTD/svg10.dtd">
<svg version="1.0" xmlns="http://www.w3.org/2000/svg"
 width="480.000000pt" height="110.000000pt" viewBox="0 0 480.000000 110.000000"
 preserveAspectRatio="xMidYMid meet">

<g transform="translate(0.000000,110.000000) scale(0.100000,-0.100000)"
fill="#000000" stroke="none">
<path d="M1487 806 c-3 -7 -18 -17 -34 -20 -29 -8 -88 -48 -111 -76 -7 -8 -22
-33 -34 -55 -30 -56 -30 -173 -1 -230 79 -150 277 -191 423 -88 22 16 40 33
40 40 0 6 -14 23 -31 37 l-31 27 -33 -25 c-48 -37 -116 -52 -168 -36 -154 45
-172 242 -30 311 57 27 129 21 184 -16 21 -14 45 -25 52 -25 16 0 57 41 57 58
0 14 -79 69 -113 77 -14 4 -31 13 -38 21 -16 19 -125 19 -132 0z"/>
<path d="M72 543 l3 -248 35 -3 c58 -4 63 5 61 107 -2 90 -2 91 24 101 15 6
38 10 53 10 37 0 88 33 113 72 25 40 21 107 -8 147 -35 47 -78 61 -186 61
l-97 0 2 -247z m188 139 c32 -26 21 -66 -21 -81 -46 -16 -69 0 -69 48 0 21 3
41 7 44 13 13 61 7 83 -11z"/>
<path d="M477 784 c-4 -4 -7 -114 -7 -245 0 -207 2 -238 16 -243 9 -3 55 -6
104 -6 97 0 120 11 120 55 0 30 -29 47 -68 39 -16 -3 -39 -1 -51 5 -20 11 -21
20 -23 204 l-3 192 -40 3 c-23 2 -44 0 -48 -4z"/>
<path d="M944 783 c-13 -9 -46 -87 -119 -278 -25 -66 -52 -135 -60 -152 -19
-44 -10 -63 30 -63 34 0 54 17 76 65 l14 30 103 3 103 3 19 -45 c21 -47 34
-56 81 -56 41 0 44 17 14 78 -14 28 -25 55 -25 59 0 5 -61 162 -106 273 -33
80 -38 85 -79 88 -22 1 -45 -1 -51 -5z m81 -217 c13 -33 22 -63 19 -68 -3 -4
-30 -8 -60 -8 -45 0 -54 3 -54 18 0 10 4 22 8 28 5 5 14 28 21 52 16 58 36 52
66 -22z"/>
<path d="M1865 778 c-3 -8 -4 -119 -3 -248 l3 -235 115 -3 c153 -4 160 -2 160
47 0 47 -8 51 -106 51 -41 0 -74 3 -75 8 -5 38 -4 95 3 105 5 8 31 11 80 9 40
-1 79 2 86 6 8 6 12 24 10 48 l-3 39 -84 5 c-95 6 -114 19 -93 64 10 24 16 25
94 28 l83 3 0 40 0 40 -133 3 c-101 2 -134 0 -137 -10z"/>
<path d="M2235 778 c-3 -7 -4 -119 -3 -248 l3 -235 36 -3 c21 -2 40 2 47 11 6
7 13 56 14 108 l3 94 68 3 c95 4 100 -1 95 -110 -3 -97 2 -108 53 -108 48 0
50 11 47 261 l-3 234 -38 3 c-58 5 -65 -7 -59 -90 4 -61 2 -73 -13 -85 -20
-14 -122 -18 -142 -5 -7 5 -13 40 -15 92 l-3 85 -43 3 c-28 2 -44 -1 -47 -10z"/>
<path d="M2845 781 c-66 -21 -135 -84 -161 -147 -16 -39 -18 -124 -4 -176 11
-38 93 -138 114 -138 15 0 66 52 66 68 0 6 -11 19 -24 28 -64 42 -85 142 -43
205 65 98 204 90 264 -16 43 -77 24 -122 -106 -249 -50 -49 -91 -94 -91 -100
1 -14 46 -66 58 -66 15 0 216 208 234 243 23 43 24 166 2 212 -22 47 -80 104
-128 126 -41 19 -139 24 -181 10z"/>
<path d="M3254 777 c-2 -7 -3 -118 -2 -247 l3 -235 104 -3 c110 -3 131 4 131
42 0 39 -16 50 -74 51 -30 0 -58 4 -62 7 -3 4 -6 89 -5 188 2 127 -1 186 -10
196 -14 17 -78 19 -85 1z"/>
<path d="M3568 784 c-5 -4 -8 -112 -8 -239 0 -197 2 -235 15 -245 12 -10 43
-11 127 -6 139 8 178 26 226 106 29 49 32 62 32 131 0 115 -40 192 -125 237
-32 17 -253 31 -267 16z m205 -98 c55 -23 97 -89 97 -152 0 -42 -37 -112 -69
-128 -30 -16 -125 -26 -136 -14 -9 8 -9 284 0 297 9 15 70 14 108 -3z"/>
<path d="M4065 780 c-4 -6 -7 -115 -7 -242 0 -181 3 -233 14 -239 7 -5 66 -9
131 -9 116 0 118 0 129 25 8 19 8 31 0 50 -10 22 -17 24 -94 27 l-83 3 -3 46
c-4 66 11 78 91 72 70 -6 97 8 97 50 0 40 -13 46 -94 49 -87 3 -104 15 -92 61
6 27 8 27 91 27 83 0 85 0 91 27 13 51 -1 58 -139 61 -81 2 -128 -1 -132 -8z"/>
<path d="M4442 778 c-9 -9 -12 -76 -12 -239 0 -250 1 -253 62 -247 l33 3 3 93
c3 105 17 120 48 50 10 -24 33 -67 51 -95 32 -51 34 -53 78 -53 50 0 70 21 42
43 -16 13 -97 153 -97 168 0 6 18 27 40 48 38 36 40 41 40 98 0 70 -22 106
-76 129 -42 18 -195 19 -212 2z m176 -94 c36 -25 26 -66 -18 -80 -49 -16 -70
-3 -70 45 0 21 3 41 7 44 12 13 58 7 81 -9z"/>
<path d="M2871 574 c-12 -15 -21 -32 -21 -39 0 -16 57 -65 74 -65 25 0 66 41
66 66 0 60 -81 86 -119 38z"/>
</g>
</svg>
