<svg id="logo" xmlns="http://www.w3.org/2000/svg" width="881" height="204" viewBox="0 0 881 204">
  <defs>
    <style>
      .cls-1 {
        fill: #F41E1E;
      }

      .cls-2 {
        fill: #FFFFFF;
      }
    </style>
  </defs>
  <path class="cls-1" d="M33.365,23.082C38,14.164,48.885,7,57.726,7h61.895L81.042,88.42H0Zm129.343,23.9c2.908-6.453,10.38-11.657,16.707-11.657h42.936L205.556,76.3c-2.831,6.68-10.4,12.131-16.893,12.131H144.615Zm68.6-33.839c1.407-3.309,5.229-5.986,8.527-5.986H262L252.836,29.5c-1.388,3.378-5.234,6.125-8.583,6.125H221.781l9.536-22.479ZM81.038,88.416H144.72l-30.642,68.063H48.345l32.7-68.063h0Zm33.125,69.68h46.128l-18.381,42.9C139.544,206.509,133.522,211,128.464,211h-38.1Z" transform="translate(0 -7)"/>
  <path id="Raccer" class="cls-2" d="M355.5,184l-3.145-61.165c16.969-5.646,29.758-20.472,38.305-44.19q5.668-15.734,5.777-25.62a17.342,17.342,0,0,0-8.155-15.418q-8.249-5.555-27.909-5.554h-71.6L227.4,184h33.135l22.333-56.914h35.452L320.268,184H355.5ZM321.885,99.8H293.572l16.39-41.77h28.112q13.162,0,18.251,1.6t5.256,5.668q0.16,4.078-3.287,13.352-3.388,9.109-6.668,13.373t-9.943,6.022q-6.661,1.76-19.8,1.757h0Zm75.679,86.071a81.688,81.688,0,0,0,23.515-3.265q10.884-3.258,19.464-12.987h1.625L438.342,184H467.51l22.659-70.737q5.589-17.449,5.166-26.7-0.4-9.227-9.672-13.859-9.241-4.626-31.181-4.625a289.4,289.4,0,0,0-44.662,3.44L401.9,93.877q6.332-.656,16.955-1.312t17.62-.656q14.451,0,19.96,1.093t6.351,5.038q0.84,3.954-2.45,13.894l-1.395,4.217q-23.4-.885-35.237-0.889-14.349,0-23.42,3.448a33.842,33.842,0,0,0-15,11.068q-5.929,7.647-10.787,21.259c-4.412,12.359-4.687,21.276-.789,26.682q5.863,8.145,23.853,8.149h0Zm22.96-24.31q-9.03,0-12.729-1.032t-4.248-3.781q-0.552-2.744,1.582-8.894a36.409,36.409,0,0,1,4.364-9.292,10.484,10.484,0,0,1,5.725-3.947,40.592,40.592,0,0,1,10.437-1.013h27.51l-1.195,3.606q-3.824,11.539-9.1,17.026a24.148,24.148,0,0,1-9.385,5.606,42.489,42.489,0,0,1-12.96,1.721h0ZM567.847,182.37l6.793-23.793q-18.571,1.837-26.906,1.834-12.27,0-16.91-2.636t-4.374-9.583c0.174-4.616,1.839-12.115,4.986-22.449q4.611-15.163,8.355-21.876a20.69,20.69,0,0,1,9.73-9.334q5.984-2.625,17.955-2.624a143.248,143.248,0,0,1,24.736,1.968L598.6,71.523a107.263,107.263,0,0,0-14.637-2.474,158.074,158.074,0,0,0-17.3-.967q-20.825,0-33.2,6.35a46.178,46.178,0,0,0-19.276,18.132Q507.3,104.4,500.643,125.519c-4.73,15-7.393,26.622-7.956,34.777q-0.849,12.308,7.8,18.933,8.679,6.634,31.572,6.639,8.871,0,18.718-.934a137.772,137.772,0,0,0,17.071-2.564h0Zm93.519,0,6.017-23.793q-18.51,1.837-26.846,1.834-12.269,0-17-2.636t-4.686-9.583c0.023-4.616,1.444-12.115,4.255-22.449q4.116-15.163,7.641-21.876a19.745,19.745,0,0,1,9.427-9.334q5.9-2.625,17.868-2.624a144.368,144.368,0,0,1,24.8,1.968l5.66-22.354a108.985,108.985,0,0,0-14.717-2.474,158.937,158.937,0,0,0-17.327-.967q-20.826,0-33,6.35a44.04,44.04,0,0,0-18.685,18.132q-6.505,11.837-12.474,32.954c-4.241,15-6.525,26.622-6.822,34.777q-0.448,12.308,8.415,18.933,8.895,6.634,31.789,6.639,8.871,0,18.687-.934a135.8,135.8,0,0,0,16.988-2.564h0Zm125.608-56.4c3.418-16.027,5.052-27.742,4.927-35.259q-0.184-11.21-9.273-16.923-9.062-5.7-31.892-5.7-23.292,0-35.789,5.81a40.32,40.32,0,0,0-18.934,17.47c-4.284,7.812-8.329,19.318-12.151,34.6-3.98,15.91-5.838,27.961-5.539,36.05q0.446,12.21,11.129,18.025,10.713,5.825,36.643,5.826,11.673,0,24.047-1.05a174.364,174.364,0,0,0,20.184-2.681l5.065-23.56q-22.606,1.837-36.265,1.834-16.436,0-22.509-1.719t-6.717-6.743c-0.433-3.338.331-9.092,2.275-17.224h72.931ZM744.979,91.036q8.806,0,12.724,1.639t4.553,6.9q0.632,5.279-1.941,16.8H716.567q2.986-11.528,5.663-16.577a14.078,14.078,0,0,1,7.633-6.9q4.955-1.854,15.116-1.857h0ZM789.294,184h31.035l9.061-45.893q3.2-16.2,8.249-25.066a28.95,28.95,0,0,1,13.93-12.7q8.889-3.84,23.816-3.841l5.228-28.422q-14.78,0-24.381,4.517-9.629,4.529-16.215,16.254h-1.805L841.083,69.8H813.075Z" transform="translate(0 -7)"/>
</svg>
