<svg width="84" height="81" viewBox="0 0 84 81" fill="none" xmlns="http://www.w3.org/2000/svg">
<path d="M2.91357 75.0873V8.68589C2.91357 3.8888 6.80238 0 11.5995 0H72.4007C77.1979 0 81.0866 3.8888 81.0866 8.68589V52.1153C81.0866 56.9125 77.1979 60.8012 72.4007 60.8012H24.46C21.8214 60.8012 19.3258 62.0007 17.6775 64.061L7.5541 76.715C6.01535 78.6385 2.91357 77.5506 2.91357 75.0873Z" stroke="#25D366" stroke-width="5"/>
<path d="M35.4859 30.4007H26.8C24.4015 30.4007 22.457 28.4562 22.457 26.0577V21.7148C22.457 19.3162 24.4015 17.3718 26.8 17.3718H31.1429C33.5415 17.3718 35.4859 19.3162 35.4859 21.7148V30.4007ZM35.4859 30.4007C35.4859 34.7436 31.1429 39.0865 26.8 43.4295" stroke="#25D366" stroke-width="5" stroke-linecap="round"/>
<path d="M61.543 30.4007H52.8571C50.4585 30.4007 48.5142 28.4562 48.5142 26.0577V21.7148C48.5142 19.3162 50.4585 17.3718 52.8571 17.3718H57.2C59.5987 17.3718 61.543 19.3162 61.543 21.7148V30.4007ZM61.543 30.4007C61.543 34.7436 57.2 39.0865 52.8571 43.4295" stroke="#25D366" stroke-width="5" stroke-linecap="round"/>
</svg>
